<svg height="512pt" viewBox="-63 0 512 512" width="512pt" xmlns="http://www.w3.org/2000/svg"><path d="m171.15625 45.746094c-3.996094 0-7.234375 3.242187-7.234375 7.238281s3.238281 7.234375 7.234375 7.234375 7.238281-3.238281 7.238281-7.234375-3.238281-7.238281-7.238281-7.238281zm42.867188 0c-3.996094 0-7.234376 3.242187-7.234376 7.238281s3.238282 7.234375 7.234376 7.234375c3.996093 0 7.238281-3.238281 7.238281-7.234375s-3.242188-7.238281-7.238281-7.238281zm-21.433594 60.621094c-41.015625 0-74.382813 33.371093-74.382813 74.386718s33.367188 74.386719 74.382813 74.386719 74.386718-33.371094 74.386718-74.386719-33.371093-74.386718-74.386718-74.386718zm0 133.773437c-32.742188 0-59.382813-26.640625-59.382813-59.386719s26.640625-59.386718 59.382813-59.386718c32.746094 0 59.386718 26.640624 59.386718 59.386718s-26.640624 59.386719-59.386718 59.386719zm-54.597656 109.347656c3.996093 0 7.234374-3.238281 7.234374-7.234375s-3.238281-7.234375-7.234374-7.234375c-3.996094 0-7.234376 3.238281-7.234376 7.234375s3.238282 7.234375 7.234376 7.234375zm109.199218 0c3.996094 0 7.234375-3.238281 7.234375-7.234375s-3.238281-7.234375-7.234375-7.234375-7.238281 3.238281-7.238281 7.234375 3.242187 7.234375 7.238281 7.234375zm53.648438-81.648437c.511718-47.066406-5.234375-94.507813-17.0625-137.453125-1.097656-3.992188-5.226563-6.339844-9.222656-5.238281-3.992188 1.101562-6.335938 5.230468-5.238282 9.222656 12.011719 43.613281 17.550782 92.023437 16.425782 139.796875-.007813.082031-.019532.160156-.023438.242187-.003906.160156.003906.316406.007812.476563-.234374 9.296875-.71875 18.566406-1.457031 27.773437h-67.605469v-11.445312c0-13.273438-10.800781-24.070313-24.074218-24.070313-13.273438 0-24.070313 10.796875-24.070313 24.070313v11.445312h-67.585937c-3.269532-40.984375-1.554688-83.636718 5.1875-123.898437 5.800781-34.648438 15.050781-66.4375 27.328125-94.351563h118.273437c2.261719 5.148438 4.429688 10.433594 6.488282 15.855469 1.472656 3.875 5.804687 5.820313 9.675781 4.347656 3.871093-1.472656 5.816406-5.804687 4.347656-9.675781-11.199219-29.460938-25.355469-55.253906-42.085937-76.667969-9.070313-11.609375-22.761719-18.269531-37.558594-18.269531s-28.488282 6.660156-37.558594 18.269531c-31.015625 39.699219-53.042969 94.339844-63.707031 158.011719-4.980469 29.761719-7.292969 60.792969-6.957031 91.554688-42.65625 5.648437-84.367188 46.136718-84.367188 108.949218 0 6.40625.242188 12.429688.710938 18.074219 0 .011719 0 .023437.003906.039063 3.105468 37.433593 16.367187 57.792968 38.128906 57.792968 28.121094 0 35.933594-29.21875 42.828125-54.996094 3.585937-13.414062 7.265625-27.15625 13.308594-35.804687 4.414062 9.972656 13.480469 17.234375 24.230469 19.332031-1.253907 5.742188-1.898438 11.625-1.898438 17.59375 0 20.175782 7.300781 46.261719 19.050781 68.078125 1.355469 2.515625 3.941407 3.945313 6.609375 3.945313 1.203125 0 2.417969-.289063 3.550782-.898438 3.644531-1.964844 5.011718-6.515625 3.046874-10.160156-10.484374-19.464844-17.257812-43.394531-17.257812-60.964844 0-5.785156.730469-11.46875 2.167969-16.964844h34.035156v46.765626c0 13.273437 10.800781 24.074218 24.074219 24.074218 13.273437 0 24.070312-10.800781 24.070312-24.074218v-46.765626h34.039063c1.4375 5.496094 2.167969 11.179688 2.167969 16.960938 0 18.703125-7.40625 43.773438-18.867188 63.871094-12.4375 21.808594-27.527344 34.316406-41.410156 34.316406-7.914063 0-16.042969-3.886719-24.15625-11.554688-3.011719-2.84375-7.757813-2.710937-10.601563.300782-2.847656 3.011718-2.710937 7.757812.300781 10.605468 10.988282 10.382813 22.582032 15.648438 34.457032 15.648438 19.703125 0 39.039062-14.875 54.441406-41.886719 12.65625-22.195312 20.835938-50.183593 20.835938-71.300781 0-5.964844-.644532-11.847656-1.898438-17.589844 10.75-2.101562 19.816406-9.363281 24.230469-19.335937 6.042969 8.652343 9.722656 22.390625 13.308593 35.804687 6.894532 25.777344 14.707032 54.996094 42.828126 54.996094 21.761718 0 35.023437-20.355469 38.132812-57.792969 0-.011719 0-.027343.003906-.039062.464844-5.640625.707032-11.664063.707032-18.074219.003906-62.796875-41.691407-103.28125-84.339844-108.941406zm-133.988282-240.335938c6.210938-7.945312 15.589844-12.503906 25.738282-12.503906 10.148437 0 19.53125 4.558594 25.738281 12.503906 9.699219 12.417969 18.496094 26.441406 26.316406 41.90625h-104.109375c7.796875-15.414062 16.59375-29.457031 26.316406-41.90625zm-128.007812 410.183594c-14.109375 0-19.964844-18.304688-22.328125-36.074219h48.535156c-6.367187 22.621094-12.253906 36.074219-26.207031 36.074219zm30.285156-51.074219h-53.90625c-.167968-3.683593-.222656-7.039062-.222656-9.832031 0-53.582031 34.273438-88.324219 69.738281-93.855469.367188 9.339844.984375 18.628907 1.839844 27.828125.007813.089844.015625.183594.027344.273438 1.0625 11.320312 2.503906 22.5 4.3125 33.457031-11.617188 8.9375-17.136719 25.269531-21.789063 42.128906zm99.390625-19.761719h-42.878906c-8.90625 0-16.5625-6.351562-18.210937-15.101562-.3125-1.652344-.613282-3.3125-.910157-4.976562-.003906-.023438-.007812-.046876-.011719-.066407-1.675781-9.515625-3.050781-19.21875-4.140624-29.046875h66.152343zm33.144531 61.765626c0 5-4.070312 9.070312-9.074218 9.070312-5 0-9.070313-4.070312-9.070313-9.070312v-27.003907h18.144531zm0-42.003907h-18.144531v-95.398437c0-5.003906 4.070313-9.070313 9.070313-9.070313 5.003906 0 9.070312 4.066407 9.070312 9.070313v95.398437zm76.089844-34.863281c-1.648437 8.75-9.308594 15.101562-18.210937 15.101562h-42.878907v-49.191406h66.171876c-1.285157 11.527344-2.976563 22.921875-5.082032 34.089844zm68.582032 85.9375c-13.949219 0-19.835938-13.453125-26.203126-36.074219h48.53125c-2.359374 17.769531-8.21875 36.074219-22.328124 36.074219zm23.625-51.074219h-53.90625c-4.65625-16.863281-10.175782-33.199219-21.796876-42.132812 3.316407-20.058594 5.382813-40.714844 6.207032-61.550781 35.460937 5.539062 69.71875 40.28125 69.71875 93.851562 0 2.792969-.054688 6.152344-.222656 9.832031zm-163.140626-247.390625v-3.394531c0-4.140625-3.355468-7.5-7.5-7.5-4.140624 0-7.5 3.359375-7.5 7.5v3.183594h-5.0625v-3.640625c0-4.140625-3.359374-7.5-7.5-7.5-4.144531 0-7.5 3.359375-7.5 7.5v3.640625h-5.578124c-4.140626 0-7.5 3.355469-7.5 7.5s3.359374 7.5 7.5 7.5h5.578124v19.242187h-5.578124c-4.140626 0-7.5 3.355469-7.5 7.5 0 4.144532 3.359374 7.5 7.5 7.5h5.578124v19.242188h-5.578124c-4.140626 0-7.5 3.355468-7.5 7.5 0 4.140625 3.359374 7.5 7.5 7.5h5.578124v3.640625c0 4.140625 3.355469 7.5 7.5 7.5 4.140626 0 7.5-3.359375 7.5-7.5v-3.640625h5.0625v3.183594c0 4.140624 3.359376 7.5 7.5 7.5 4.144532 0 7.5-3.359376 7.5-7.5v-3.394532c12.085938-1.558594 21.453126-11.90625 21.453126-24.410156 0-6.648438-2.652344-12.683594-6.949219-17.121094 4.296875-4.433594 6.949219-10.472656 6.949219-17.121094 0-12.5-9.367188-22.851562-21.453126-24.410156zm-3.167968 68.273438h-16.894532v-19.242188h16.894532c5.308594 0 9.621094 4.316406 9.621094 9.621094s-4.3125 9.621094-9.621094 9.621094zm0-34.242188h-16.894532v-19.242187h16.894532c5.308594 0 9.621094 4.316406 9.621094 9.621093 0 5.304688-4.3125 9.621094-9.621094 9.621094zm0 0"/></svg>